<svg width="25" height="25" viewBox="0 0 25 25" fill="none" xmlns="http://www.w3.org/2000/svg">
<g clip-path="url(#clip0_73_495)">
<path d="M25 12.5C25 5.59622 19.4033 0 12.5 0C5.59671 0 0 5.59622 0 12.5C0 18.7389 4.57128 23.9104 10.5468 24.8481V16.1134H7.37284V12.5H10.5468V9.74628C10.5468 6.61327 12.4132 4.88301 15.268 4.88301C16.6358 4.88301 18.0661 5.12962 18.0661 5.12962V8.20542H16.4903C14.9371 8.20542 14.4532 9.1692 14.4532 10.1576V12.5025H17.9196L17.3657 16.1159H14.4517V24.8481C20.4287 23.9104 25 18.7389 25 12.5Z" fill="#1877F2"/>
<path d="M17.364 16.1132L17.9179 12.4998H14.45V10.155C14.45 9.16851 14.9338 8.20276 16.487 8.20276H18.0629V5.12943C18.0629 5.12943 16.6325 4.88281 15.2648 4.88281C12.41 4.88281 10.5436 6.61307 10.5436 9.74609V12.4998H7.37109V16.1132H10.545V24.8479C11.8393 25.0504 13.1572 25.0504 14.4515 24.8479V16.1132H17.364Z" fill="white"/>
</g>
<defs>
<clipPath id="clip0_73_495">
<rect width="25" height="25" fill="white"/>
</clipPath>
</defs>
</svg>
